<svg xmlns="http://www.w3.org/2000/svg" width="16" height="23" fill="none" viewBox="0 0 16 23">
  <path fill="#FE9C70" d="M7.02 5.926a.649.649 0 011.1 0 3.015 3.015 0 002.573 1.425h.555V5.837a2.815 2.815 0 00-2.812-2.812h-1.73a2.815 2.815 0 00-2.812 2.812v1.514h.555A3.015 3.015 0 007.02 5.926zM6.056 15.335v1.317a1.514 1.514 0 003.028 0v-1.317a4.955 4.955 0 01-3.028 0z"/>
  <path fill="#FE9C70" d="M8.22 12.326c0-.359.29-.65.648-.65h2.217c.106-.341.163-.704.163-1.08V8.648h-.555A4.302 4.302 0 017.57 7.322a4.302 4.302 0 01-3.122 1.327h-.555v1.947a3.681 3.681 0 003.677 3.677 3.67 3.67 0 002.8-1.298H8.868a.649.649 0 01-.648-.65zM11.464 16.003h-1.082v.649a2.815 2.815 0 01-2.812 2.811 2.815 2.815 0 01-2.811-2.811v-.65H3.677A3.681 3.681 0 000 19.68v2.25c0 .358.29.648.649.648h1.99v-1.6a.649.649 0 011.298 0v1.6h7.31v-1.6a.649.649 0 011.298 0v1.6h1.947c.358 0 .649-.29.649-.649v-2.25a3.681 3.681 0 00-3.677-3.676z"/>
  <path fill="#FE9C70" d="M1.73 10.812h.865v-3.46h-.433v-.217a5.414 5.414 0 015.407-5.408 5.414 5.414 0 015.408 5.408v.216h-.433v4.11c0 .12-.097.216-.216.216h-1.244a3.673 3.673 0 01-.714 1.298h1.958c.835 0 1.514-.68 1.514-1.514v-.766a.864.864 0 00.433-.748V7.135A6.713 6.713 0 007.569.43 6.713 6.713 0 00.864 7.135v2.812c0 .478.388.865.865.865z"/>
</svg>
