<svg xmlns="http://www.w3.org/2000/svg" width="154" height="73" fill="none" viewBox="0 0 154 73">
  <path fill="#fff" d="M2.88 50h6.96V34.88L16.8 50h4.32l6.96-15.12V50h6.96V19.76H28.8l-9.84 21.36-9.84-21.36H2.88V50zm51.122-6.96a2.222 2.222 0 01-.768.72c-.528.384-1.392.72-2.592.72-2.448 0-4.032-1.68-4.56-3.36h15.12l.096-.72c.048-.432.144-.912.144-1.44 0-6.96-4.8-11.52-10.8-11.52-6.24 0-11.28 5.04-11.28 11.52 0 6.48 5.088 11.52 11.04 11.52 5.712 0 9.168-3.36 10.32-6.96l-6.72-.48zm-7.92-6c.528-1.92 2.112-3.6 4.56-3.6 2.448 0 4.032 1.68 4.56 3.6h-9.12zM81.585 50h4.8V19.76h-6.48v9.84a8.836 8.836 0 00-1.488-.96c-.96-.528-2.352-.96-4.032-.96-5.52 0-10.32 4.752-10.32 11.28s4.8 11.28 10.32 11.28a9.2 9.2 0 004.56-1.2c.624-.336 1.152-.768 1.68-1.2l.96 2.16zm-6.24-5.76c-2.688 0-4.8-2.16-4.8-5.28s2.112-5.28 4.8-5.28c2.688 0 4.8 2.16 4.8 5.28s-2.112 5.28-4.8 5.28zM91.181 50h6.48V27.92h-6.48V50zm-.24-28.08c0 1.92 1.68 3.6 3.6 3.6 1.92 0 3.6-1.68 3.6-3.6 0-1.92-1.68-3.6-3.6-3.6-1.92 0-3.6 1.68-3.6 3.6zM99.838 50h7.2l4.08-6.72 4.08 6.72h7.2l-7.2-11.28 6.72-10.8h-7.2l-3.6 6.24-3.6-6.24h-7.2l6.72 10.8-7.2 11.28z"/>
  <g clip-path="url(#clip0_120:13)">
    <path fill="#fff" d="M151.669 22.602c-3.085-3.083-8.104-3.083-11.189 0l-6.523 6.523 7.406 7.406c1.524-1.27 3.457-2.064 5.59-2.064 1.224 0 2.389.254 3.449.708l1.267-1.384c3.084-3.084 3.084-8.104 0-11.189zM140.13 37.784l-7.416-7.416-6.384 6.39c-3.084 3.085-3.084 8.104 0 11.19 3.085 3.083 8.162 3.142 11.247.058l1.294-1.3a8.734 8.734 0 01-.708-3.449c0-2.079.756-3.966 1.967-5.473zM139.92 43.258c0 3.582 2.689 6.506 6.153 6.943V36.314c-3.464.437-6.153 3.36-6.153 6.944zM147.83 36.314v13.887c3.464-.437 6.153-3.36 6.153-6.943 0-3.583-2.689-6.507-6.153-6.944z"/>
  </g>
  <defs>
    <clipPath id="clip0_120:13">
      <path fill="#fff" d="M0 0h30v30H0z" transform="translate(124 20.29)"/>
    </clipPath>
  </defs>
</svg>
